<svg width="49" height="49" viewBox="0 0 49 49" fill="none" xmlns="http://www.w3.org/2000/svg">
<circle cx="24.5" cy="24.5" r="24.5" fill="#1C5E20"/>
<path d="M29.2488 25.417C29.5393 25.417 29.8178 25.3016 30.0232 25.0963C30.2286 24.8909 30.344 24.6123 30.344 24.3218C30.344 24.0313 30.2286 23.7527 30.0232 23.5474C29.8178 23.342 29.5393 23.2266 29.2488 23.2266C28.9583 23.2266 28.6797 23.342 28.4743 23.5474C28.2689 23.7527 28.1536 24.0313 28.1536 24.3218C28.1536 24.6123 28.2689 24.8909 28.4743 25.0963C28.6797 25.3016 28.9583 25.417 29.2488 25.417ZM29.2488 29.798C29.5393 29.798 29.8178 29.6826 30.0232 29.4772C30.2286 29.2718 30.344 28.9932 30.344 28.7028C30.344 28.4123 30.2286 28.1337 30.0232 27.9283C29.8178 27.7229 29.5393 27.6075 29.2488 27.6075C28.9583 27.6075 28.6797 27.7229 28.4743 27.9283C28.2689 28.1337 28.1536 28.4123 28.1536 28.7028C28.1536 28.9932 28.2689 29.2718 28.4743 29.4772C28.6797 29.6826 28.9583 29.798 29.2488 29.798ZM24.8678 24.3218C24.8678 24.6123 24.7524 24.8909 24.5471 25.0963C24.3417 25.3016 24.0631 25.417 23.7726 25.417C23.4821 25.417 23.2035 25.3016 22.9982 25.0963C22.7928 24.8909 22.6774 24.6123 22.6774 24.3218C22.6774 24.0313 22.7928 23.7527 22.9982 23.5474C23.2035 23.342 23.4821 23.2266 23.7726 23.2266C24.0631 23.2266 24.3417 23.342 24.5471 23.5474C24.7524 23.7527 24.8678 24.0313 24.8678 24.3218ZM24.8678 28.7028C24.8678 28.9932 24.7524 29.2718 24.5471 29.4772C24.3417 29.6826 24.0631 29.798 23.7726 29.798C23.4821 29.798 23.2035 29.6826 22.9982 29.4772C22.7928 29.2718 22.6774 28.9932 22.6774 28.7028C22.6774 28.4123 22.7928 28.1337 22.9982 27.9283C23.2035 27.7229 23.4821 27.6075 23.7726 27.6075C24.0631 27.6075 24.3417 27.7229 24.5471 27.9283C24.7524 28.1337 24.8678 28.4123 24.8678 28.7028ZM18.2964 25.417C18.5869 25.417 18.8655 25.3016 19.0709 25.0963C19.2763 24.8909 19.3916 24.6123 19.3916 24.3218C19.3916 24.0313 19.2763 23.7527 19.0709 23.5474C18.8655 23.342 18.5869 23.2266 18.2964 23.2266C18.0059 23.2266 17.7274 23.342 17.522 23.5474C17.3166 23.7527 17.2012 24.0313 17.2012 24.3218C17.2012 24.6123 17.3166 24.8909 17.522 25.0963C17.7274 25.3016 18.0059 25.417 18.2964 25.417ZM18.2964 29.798C18.5869 29.798 18.8655 29.6826 19.0709 29.4772C19.2763 29.2718 19.3916 28.9932 19.3916 28.7028C19.3916 28.4123 19.2763 28.1337 19.0709 27.9283C18.8655 27.7229 18.5869 27.6075 18.2964 27.6075C18.0059 27.6075 17.7274 27.7229 17.522 27.9283C17.3166 28.1337 17.2012 28.4123 17.2012 28.7028C17.2012 28.9932 17.3166 29.2718 17.522 29.4772C17.7274 29.6826 18.0059 29.798 18.2964 29.798Z" fill="white"/>
<path fill-rule="evenodd" clip-rule="evenodd" d="M18.2965 12C18.5144 12 18.7233 12.0865 18.8774 12.2406C19.0314 12.3946 19.118 12.6036 19.118 12.8214V13.6571C19.843 13.6429 20.6414 13.6429 21.5198 13.6429H26.0245C26.904 13.6429 27.7024 13.6429 28.4275 13.6571V12.8214C28.4275 12.6036 28.514 12.3946 28.6681 12.2406C28.8221 12.0865 29.031 12 29.2489 12C29.4668 12 29.6757 12.0865 29.8297 12.2406C29.9838 12.3946 30.0703 12.6036 30.0703 12.8214V13.7272C30.3551 13.7491 30.6245 13.7765 30.8797 13.8104C32.1633 13.9835 33.2027 14.3471 34.023 15.1663C34.8423 15.9867 35.2059 17.026 35.379 18.3097C35.5465 19.5582 35.5465 21.1518 35.5465 23.1649V25.478C35.5465 27.491 35.5465 29.0857 35.379 30.3332C35.2059 31.6168 34.8423 32.6562 34.023 33.4765C33.2027 34.2958 32.1633 34.6594 30.8797 34.8324C29.6311 35 28.0376 35 26.0245 35H21.522C19.509 35 17.9143 35 16.6668 34.8324C15.3832 34.6594 14.3438 34.2958 13.5235 33.4765C12.7042 32.6562 12.3406 31.6168 12.1676 30.3332C12 29.0846 12 27.491 12 25.478V23.1649C12 21.1518 12 19.5571 12.1676 18.3097C12.3406 17.026 12.7042 15.9867 13.5235 15.1663C14.3438 14.3471 15.3832 13.9835 16.6668 13.8104C16.922 13.7765 17.1925 13.7491 17.4762 13.7272V12.8214C17.4762 12.6038 17.5626 12.395 17.7164 12.241C17.8702 12.087 18.0789 12.0003 18.2965 12ZM16.8837 15.439C15.783 15.5869 15.1477 15.8651 14.6844 16.3284C14.2211 16.7917 13.943 17.4269 13.7951 18.5287C13.7699 18.7149 13.7491 18.912 13.7316 19.119H33.8139C33.7963 18.911 33.7755 18.7149 33.7503 18.5276C33.6025 17.4269 33.3243 16.7917 32.861 16.3284C32.3977 15.8651 31.7625 15.5869 30.6607 15.439C29.5359 15.2879 28.0518 15.2857 25.9632 15.2857H21.5822C19.4936 15.2857 18.0107 15.2879 16.8837 15.439ZM13.6418 23.2262C13.6418 22.2909 13.6418 21.4771 13.656 20.7619H33.8894C33.9037 21.4771 33.9037 22.2909 33.9037 23.2262V25.4167C33.9037 27.5053 33.9015 28.9893 33.7503 30.1152C33.6025 31.216 33.3243 31.8512 32.861 32.3145C32.3977 32.7778 31.7625 33.056 30.6607 33.2038C29.5359 33.355 28.0518 33.3571 25.9632 33.3571H21.5822C19.4936 33.3571 18.0107 33.355 16.8837 33.2038C15.783 33.056 15.1477 32.7778 14.6844 32.3145C14.2211 31.8512 13.943 31.216 13.7951 30.1141C13.644 28.9893 13.6418 27.5053 13.6418 25.4167V23.2262Z" fill="white"/>
</svg>
