<svg width="54" height="51" viewBox="0 0 54 51" fill="none" xmlns="http://www.w3.org/2000/svg">
<ellipse cx="27" cy="25.5" rx="27" ry="25.5" fill="white"/>
<path d="M23.9947 36.8323V28.1037H20.654C20.4805 28.1037 20.3142 28.0348 20.1915 27.9122C20.0689 27.7895 20 27.6232 20 27.4498V23.9974C20 23.824 20.0689 23.6577 20.1915 23.535C20.3142 23.4124 20.4805 23.3435 20.654 23.3435H23.9815V20.0015C23.9019 19.209 23.9968 18.4087 24.2595 17.6568C24.5222 16.9048 24.9463 16.2195 25.5021 15.649C26.0579 15.0784 26.7318 14.6365 27.4766 14.3542C28.2214 14.0719 29.019 13.9561 29.8134 14.0149H32.5973C32.7724 14.0146 32.9406 14.0831 33.0656 14.2056C33.1907 14.3282 33.2625 14.495 33.2657 14.6701V17.5932C33.2619 17.768 33.1898 17.9343 33.0649 18.0565C32.9399 18.1788 32.7721 18.2472 32.5973 18.2472H30.8573C28.9782 18.2472 28.617 19.1376 28.617 20.4467V23.3423H33.0845C33.1773 23.3392 33.2697 23.3564 33.3553 23.3926C33.4408 23.4289 33.5174 23.4833 33.5798 23.5522C33.6421 23.6211 33.6887 23.7027 33.7163 23.7914C33.7439 23.8801 33.7519 23.9738 33.7397 24.0658L33.3353 27.5314C33.315 27.6901 33.2373 27.8359 33.1167 27.9411C32.9962 28.0464 32.8413 28.1038 32.6813 28.1025H28.6446V36.8311C28.6465 36.9852 28.6176 37.1382 28.5594 37.281C28.5013 37.4237 28.4152 37.5534 28.3061 37.6623C28.1971 37.7712 28.0673 37.8572 27.9245 37.9152C27.7817 37.9732 27.6287 38.002 27.4746 37.9999H25.1503C24.9973 38.0002 24.8458 37.9701 24.7046 37.9113C24.5634 37.8526 24.4353 37.7663 24.3277 37.6575C24.2202 37.5487 24.1354 37.4196 24.0782 37.2778C24.021 37.1359 23.9926 36.9853 23.9947 36.8323Z" fill="black"/>
</svg>
