<svg width="49" height="49" viewBox="0 0 49 49" fill="none" xmlns="http://www.w3.org/2000/svg">
<circle cx="24.5" cy="24.5" r="24.5" fill="#1C5E20"/>
<path d="M24 27C23.0111 27 22.0444 26.7068 21.2222 26.1574C20.3999 25.6079 19.759 24.8271 19.3806 23.9134C19.0022 22.9998 18.9031 21.9945 19.0961 21.0246C19.289 20.0546 19.7652 19.1637 20.4645 18.4645C21.1637 17.7652 22.0546 17.289 23.0246 17.0961C23.9945 16.9031 24.9998 17.0022 25.9134 17.3806C26.8271 17.759 27.6079 18.3999 28.1574 19.2222C28.7068 20.0444 29 21.0111 29 22C28.9984 23.3256 28.4711 24.5964 27.5338 25.5338C26.5964 26.4711 25.3256 26.9984 24 27ZM24 19C23.4067 19 22.8266 19.1759 22.3333 19.5056C21.8399 19.8352 21.4554 20.3038 21.2284 20.852C21.0013 21.4001 20.9419 22.0033 21.0576 22.5853C21.1734 23.1672 21.4591 23.7018 21.8787 24.1213C22.2982 24.5409 22.8328 24.8266 23.4147 24.9424C23.9967 25.0581 24.5999 24.9987 25.1481 24.7716C25.6962 24.5446 26.1648 24.1601 26.4944 23.6667C26.8241 23.1734 27 22.5933 27 22C26.9992 21.2046 26.6829 20.442 26.1204 19.8796C25.558 19.3171 24.7954 19.0008 24 19Z" fill="white"/>
<path d="M24 39L15.564 29.051C15.4468 28.9016 15.3308 28.7513 15.216 28.6C13.775 26.7018 12.9965 24.3832 13 22C13 19.0826 14.1589 16.2847 16.2218 14.2218C18.2847 12.1589 21.0826 11 24 11C26.9174 11 29.7153 12.1589 31.7782 14.2218C33.8411 16.2847 35 19.0826 35 22C35.0035 24.3821 34.2254 26.6996 32.785 28.597L32.784 28.6C32.784 28.6 32.484 28.994 32.439 29.047L24 39ZM16.813 27.395C16.813 27.395 17.046 27.703 17.099 27.769L24 35.908L30.91 27.758C30.954 27.703 31.189 27.392 31.189 27.392C32.3662 25.8411 33.0023 23.947 33 22C33 19.6131 32.0518 17.3239 30.364 15.636C28.6761 13.9482 26.387 13 24 13C21.6131 13 19.3239 13.9482 17.6361 15.636C15.9482 17.3239 15 19.6131 15 22C14.9979 23.9482 15.6348 25.8434 16.813 27.395Z" fill="white"/>
</svg>
