<svg width="41" height="41" viewBox="0 0 41 41" fill="none" xmlns="http://www.w3.org/2000/svg">
<path d="M35.5002 21.4072L23.969 32.9384C23.7286 33.1789 23.4025 33.3139 23.0625 33.3139C22.7225 33.3139 22.3964 33.1789 22.156 32.9384C21.9156 32.698 21.7805 32.372 21.7805 32.032C21.7805 31.692 21.9156 31.3659 22.156 31.1255L31.5011 21.782H6.40625C6.06644 21.782 5.74055 21.647 5.50027 21.4067C5.25999 21.1664 5.125 20.8405 5.125 20.5007C5.125 20.1609 5.25999 19.835 5.50027 19.5947C5.74055 19.3545 6.06644 19.2195 6.40625 19.2195H31.5011L22.156 9.87595C21.9156 9.63553 21.7805 9.30946 21.7805 8.96946C21.7805 8.62946 21.9156 8.30339 22.156 8.06298C22.3964 7.82256 22.7225 7.6875 23.0625 7.6875C23.4025 7.6875 23.7286 7.82256 23.969 8.06298L35.5002 19.5942C35.6194 19.7132 35.7139 19.8545 35.7783 20.0101C35.8428 20.1656 35.876 20.3323 35.876 20.5007C35.876 20.6691 35.8428 20.8358 35.7783 20.9914C35.7139 21.1469 35.6194 21.2882 35.5002 21.4072Z" fill="black"/>
</svg>
