<svg width="54" height="51" viewBox="0 0 54 51" fill="none" xmlns="http://www.w3.org/2000/svg">
<ellipse cx="27" cy="25.5" rx="27" ry="25.5" fill="white"/>
<path d="M27.3663 23.2444C25.646 23.2444 24.2421 24.6484 24.2421 26.3687C24.2421 28.089 25.646 29.4929 27.3663 29.4929C29.0866 29.4929 30.4905 28.089 30.4905 26.3687C30.4905 24.6484 29.0866 23.2444 27.3663 23.2444ZM36.7366 26.3687C36.7366 25.0749 36.7484 23.7929 36.6757 22.5015C36.603 21.0015 36.2609 19.6702 35.164 18.5734C34.0648 17.4741 32.7359 17.1343 31.2359 17.0616C29.9421 16.989 28.6601 17.0007 27.3687 17.0007C26.0749 17.0007 24.7929 16.989 23.5015 17.0616C22.0015 17.1343 20.6702 17.4765 19.5734 18.5734C18.4741 19.6726 18.1343 21.0015 18.0616 22.5015C17.989 23.7952 18.0007 25.0773 18.0007 26.3687C18.0007 27.6601 17.989 28.9444 18.0616 30.2359C18.1343 31.7359 18.4765 33.0671 19.5734 34.164C20.6726 35.2632 22.0015 35.603 23.5015 35.6757C24.7952 35.7484 26.0773 35.7366 27.3687 35.7366C28.6624 35.7366 29.9444 35.7484 31.2359 35.6757C32.7359 35.603 34.0671 35.2609 35.164 34.164C36.2632 33.0648 36.603 31.7359 36.6757 30.2359C36.7507 28.9444 36.7366 27.6624 36.7366 26.3687ZM27.3663 31.1757C24.7062 31.1757 22.5593 29.0288 22.5593 26.3687C22.5593 23.7085 24.7062 21.5616 27.3663 21.5616C30.0265 21.5616 32.1734 23.7085 32.1734 26.3687C32.1734 29.0288 30.0265 31.1757 27.3663 31.1757ZM32.3702 22.4874C31.7491 22.4874 31.2476 21.9859 31.2476 21.3648C31.2476 20.7437 31.7491 20.2421 32.3702 20.2421C32.9913 20.2421 33.4929 20.7437 33.4929 21.3648C33.4931 21.5122 33.4642 21.6583 33.4078 21.7946C33.3515 21.9309 33.2688 22.0547 33.1645 22.159C33.0602 22.2633 32.9364 22.346 32.8001 22.4023C32.6638 22.4587 32.5177 22.4876 32.3702 22.4874Z" fill="black"/>
</svg>
