<svg width="93" height="93" viewBox="0 0 93 93" fill="none" xmlns="http://www.w3.org/2000/svg">
<circle cx="46.5" cy="46.5" r="46.5" fill="#1C5E20"/>
<path d="M22.668 51.3398C22.0273 51.3398 21.4805 51.293 21.0273 51.1992C20.5742 51.1055 20.1523 50.9531 19.7617 50.7422C19.3789 50.5312 18.9688 50.2578 18.5312 49.9219L18.1211 51H14.3359V45.293H18.0977C18.3398 45.9492 18.7109 46.4141 19.2109 46.6875C19.7188 46.9531 20.3398 47.0859 21.0742 47.0859C21.5273 47.0859 21.9141 46.9961 22.2344 46.8164C22.5547 46.6289 22.7148 46.3828 22.7148 46.0781C22.7148 45.6953 22.5508 45.4102 22.2227 45.2227C21.8945 45.0273 21.4336 44.8477 20.8398 44.6836C20.082 44.4805 19.3945 44.2656 18.7773 44.0391C18.168 43.8125 17.6211 43.5781 17.1367 43.3359C16.168 42.8516 15.3867 42.1641 14.793 41.2734C14.1992 40.3828 13.9023 39.1992 13.9023 37.7227C13.9023 36.5898 14.1484 35.5898 14.6406 34.7227C15.125 33.8633 15.8203 33.1953 16.7266 32.7188C17.6406 32.2344 18.7148 31.9922 19.9492 31.9922C21.457 31.9922 22.6484 32.4727 23.5234 33.4336L24.1211 32.332H27.4844V37.9219H23.8867C23.5508 37.2188 23.1797 36.7305 22.7734 36.457C22.3672 36.1836 21.8086 36.0469 21.0977 36.0469C20.5586 36.0469 20.1406 36.1445 19.8438 36.3398C19.5469 36.5273 19.3984 36.7891 19.3984 37.125C19.3984 37.5 19.6133 37.7852 20.043 37.9805C20.4648 38.1836 21.0664 38.3711 21.8477 38.543C23.2148 38.8555 24.3945 39.25 25.3867 39.7266C26.3555 40.2031 27.1289 40.8789 27.707 41.7539C28.293 42.6211 28.5859 43.7422 28.5859 45.1172C28.5859 46.2812 28.3438 47.3359 27.8594 48.2812C27.3672 49.2266 26.668 49.9727 25.7617 50.5195C24.8633 51.0664 23.832 51.3398 22.668 51.3398ZM40.7266 46.875V51H30.9883V46.875H32.8633V36.4805H30.9883V32.3555H40.7266V36.4805H38.8633V46.875H40.7266ZM51.7188 51.3398C49.9844 51.3398 48.4062 50.9727 46.9844 50.2383C45.5469 49.5117 44.3984 48.418 43.5391 46.957C42.6875 45.4961 42.2617 43.6992 42.2617 41.5664C42.2617 39.7852 42.5859 38.1641 43.2344 36.7031C43.8828 35.2578 44.832 34.1133 46.082 33.2695C47.3398 32.418 48.8594 31.9922 50.6406 31.9922C51.5469 31.9922 52.3594 32.207 53.0781 32.6367C53.8047 33.0586 54.3281 33.5938 54.6484 34.2422L55.1289 32.3555H58.7734V40.0078H55.0352V39.6211C55.0352 38.6289 54.8047 37.8164 54.3438 37.1836C53.8906 36.5508 53.2148 36.2344 52.3164 36.2344C51.7148 36.2344 51.1602 36.4648 50.6523 36.9258C50.1523 37.3945 49.7578 38.0078 49.4688 38.7656C49.1797 39.5156 49.0352 40.2891 49.0352 41.0859C49.0352 42.6562 49.4258 43.8867 50.207 44.7773C50.9883 45.6602 52.0586 46.1016 53.418 46.1016C54.3789 46.1016 55.2695 45.9414 56.0898 45.6211C56.918 45.3008 57.5977 44.957 58.1289 44.5898L58.3867 44.8125V49.8047C57.3945 50.375 56.3477 50.7734 55.2461 51C54.1445 51.2266 52.9688 51.3398 51.7188 51.3398ZM74.3477 46.7812V51H63.9062V46.7812H65.8281V36.4805H64.1758L63.6719 39.6914H60.3789V32.3555H77.9219V39.6914H74.6406L74.1367 36.4805H72.4258V46.7812H74.3477Z" fill="#F5F5F5"/>
<path d="M12.0283 66.1416C11.7614 66.1416 11.5335 66.1221 11.3447 66.083C11.1559 66.0439 10.9801 65.9805 10.8174 65.8926C10.6579 65.8047 10.487 65.6908 10.3047 65.5508L10.1338 66H8.55664V63.6221H10.124C10.2249 63.8955 10.3796 64.0892 10.5879 64.2031C10.7995 64.3138 11.0583 64.3691 11.3643 64.3691C11.5531 64.3691 11.7142 64.3317 11.8477 64.2568C11.9811 64.1787 12.0479 64.0762 12.0479 63.9492C12.0479 63.7897 11.9795 63.6709 11.8428 63.5928C11.7061 63.5114 11.514 63.4365 11.2666 63.3682C10.9508 63.2835 10.6644 63.194 10.4072 63.0996C10.1533 63.0052 9.92546 62.9076 9.72363 62.8066C9.31999 62.6048 8.99447 62.3184 8.74707 61.9473C8.49967 61.5762 8.37598 61.083 8.37598 60.4678C8.37598 59.9958 8.47852 59.5791 8.68359 59.2178C8.88542 58.8597 9.17513 58.5814 9.55273 58.3828C9.93359 58.181 10.3812 58.0801 10.8955 58.0801C11.5238 58.0801 12.0202 58.2803 12.3848 58.6807L12.6338 58.2217H14.0352V60.5508H12.5361C12.3962 60.2578 12.2415 60.0544 12.0723 59.9404C11.903 59.8265 11.6702 59.7695 11.374 59.7695C11.1494 59.7695 10.9753 59.8102 10.8516 59.8916C10.7279 59.9697 10.666 60.0788 10.666 60.2188C10.666 60.375 10.7555 60.4938 10.9346 60.5752C11.1104 60.6598 11.361 60.738 11.6865 60.8096C12.2562 60.9398 12.7477 61.1042 13.1611 61.3027C13.5648 61.5013 13.887 61.7829 14.1279 62.1475C14.3721 62.5088 14.4941 62.9759 14.4941 63.5488C14.4941 64.0339 14.3932 64.4733 14.1914 64.8672C13.9863 65.2611 13.695 65.5719 13.3174 65.7998C12.943 66.0277 12.5133 66.1416 12.0283 66.1416ZM20.9346 64.252V66H16.6963V64.252H17.4434V62.8213L15.3975 59.9502H14.8457V58.2314H19.0059V59.9502H18.5664L19.4551 61.249L20.1533 59.9502H19.4453V58.2314H22.5557V59.9502H21.6768L20.168 62.5576V64.252H20.9346ZM26.3838 64.2812V66H23.1025V64.2812H24.0449V59.9502H23.1025V58.2314H27.292L28.8008 61.9717L30.2949 58.2314H34.2012V59.9502H33.2637V64.2812H34.2012V66H30.1338V64.2812H30.7637V61.3809L29.0449 66H27.6338L25.6025 61.2686V64.2812H26.3838ZM38.9717 66H34.7725V64.252H35.5342V59.9502H34.792V58.2217H38.9521C39.5902 58.2217 40.1549 58.2917 40.6465 58.4316C41.1413 58.5684 41.5286 58.7995 41.8086 59.125C42.0918 59.4505 42.2334 59.8981 42.2334 60.4678C42.2334 61.4639 41.9632 62.18 41.4229 62.6162C40.8825 63.0524 40.0719 63.2705 38.9912 63.2705C38.7145 63.2705 38.472 63.2542 38.2637 63.2217V64.252H38.9717V66ZM38.2734 59.9502V61.6787H38.4736C39.2126 61.6787 39.582 61.3532 39.582 60.7021C39.582 60.4613 39.5007 60.2757 39.3379 60.1455C39.1751 60.0153 38.957 59.9502 38.6836 59.9502H38.2734ZM46.8086 66.1416C45.998 66.1416 45.2965 65.9674 44.7041 65.6191C44.1149 65.2708 43.6657 64.7923 43.3564 64.1836C43.0505 63.5749 42.8975 62.8799 42.8975 62.0986C42.8975 61.2881 43.0505 60.5817 43.3564 59.9795C43.6624 59.374 44.1084 58.9069 44.6943 58.5781C45.2835 58.2461 45.9883 58.0801 46.8086 58.0801C47.6257 58.0801 48.3288 58.2445 48.918 58.5732C49.5039 58.9053 49.9499 59.374 50.2559 59.9795C50.5651 60.585 50.7197 61.2913 50.7197 62.0986C50.7197 62.8799 50.5667 63.5749 50.2607 64.1836C49.9548 64.7923 49.5055 65.2708 48.9131 65.6191C48.3239 65.9674 47.6224 66.1416 46.8086 66.1416ZM46.8086 64.4082C47.1602 64.4082 47.4287 64.195 47.6143 63.7686C47.8031 63.3421 47.8975 62.7725 47.8975 62.0596C47.8975 61.3662 47.8063 60.8177 47.624 60.4141C47.445 60.0104 47.1732 59.8086 46.8086 59.8086C46.4408 59.8086 46.1673 60.0104 45.9883 60.4141C45.8092 60.8177 45.7197 61.3662 45.7197 62.0596C45.7197 62.7725 45.8125 63.3421 45.998 63.7686C46.1836 64.195 46.4538 64.4082 46.8086 64.4082ZM55.3096 66.1416C55.0426 66.1416 54.8148 66.1221 54.626 66.083C54.4372 66.0439 54.2614 65.9805 54.0986 65.8926C53.9391 65.8047 53.7682 65.6908 53.5859 65.5508L53.415 66H51.8379V63.6221H53.4053C53.5062 63.8955 53.6608 64.0892 53.8691 64.2031C54.0807 64.3138 54.3395 64.3691 54.6455 64.3691C54.8343 64.3691 54.9954 64.3317 55.1289 64.2568C55.2624 64.1787 55.3291 64.0762 55.3291 63.9492C55.3291 63.7897 55.2607 63.6709 55.124 63.5928C54.9873 63.5114 54.7952 63.4365 54.5479 63.3682C54.2321 63.2835 53.9456 63.194 53.6885 63.0996C53.4346 63.0052 53.2067 62.9076 53.0049 62.8066C52.6012 62.6048 52.2757 62.3184 52.0283 61.9473C51.7809 61.5762 51.6572 61.083 51.6572 60.4678C51.6572 59.9958 51.7598 59.5791 51.9648 59.2178C52.1667 58.8597 52.4564 58.5814 52.834 58.3828C53.2148 58.181 53.6624 58.0801 54.1768 58.0801C54.805 58.0801 55.3014 58.2803 55.666 58.6807L55.915 58.2217H57.3164V60.5508H55.8174C55.6774 60.2578 55.5228 60.0544 55.3535 59.9404C55.1842 59.8265 54.9515 59.7695 54.6553 59.7695C54.4307 59.7695 54.2565 59.8102 54.1328 59.8916C54.0091 59.9697 53.9473 60.0788 53.9473 60.2188C53.9473 60.375 54.0368 60.4938 54.2158 60.5752C54.3916 60.6598 54.6423 60.738 54.9678 60.8096C55.5374 60.9398 56.029 61.1042 56.4424 61.3027C56.846 61.5013 57.1683 61.7829 57.4092 62.1475C57.6533 62.5088 57.7754 62.9759 57.7754 63.5488C57.7754 64.0339 57.6745 64.4733 57.4727 64.8672C57.2676 65.2611 56.9762 65.5719 56.5986 65.7998C56.2243 66.0277 55.7946 66.1416 55.3096 66.1416ZM62.834 64.2812V66H58.7764V64.2812H59.5576V59.9502H58.7764V58.2314H62.834V59.9502H62.0576V64.2812H62.834ZM67.4189 66.1416C66.2601 66.1416 65.4251 65.8389 64.9141 65.2334C64.4062 64.6247 64.1523 63.7327 64.1523 62.5576V59.9502H63.3613V58.2314H67.5996V59.9502H66.8818V63.2217C66.8818 63.5407 66.96 63.8027 67.1162 64.0078C67.2725 64.2096 67.5182 64.3105 67.8535 64.3105C68.1335 64.3105 68.3548 64.2275 68.5176 64.0615C68.6803 63.8923 68.7617 63.6644 68.7617 63.3779V59.9502H67.9609V58.2314H71.1494V59.9502H70.4023V63.3096C70.4023 63.9313 70.277 64.4538 70.0264 64.877C69.779 65.2969 69.4323 65.6126 68.9863 65.8242C68.5404 66.0358 68.0179 66.1416 67.4189 66.1416ZM75.0166 64.2812V66H71.7354V64.2812H72.6777V59.9502H71.7354V58.2314H75.9248L77.4336 61.9717L78.9277 58.2314H82.834V59.9502H81.8965V64.2812H82.834V66H78.7666V64.2812H79.3965V61.3809L77.6777 66H76.2666L74.2354 61.2686V64.2812H75.0166Z" fill="#F5F5F5"/>
</svg>
