<svg width="54" height="51" viewBox="0 0 54 51" fill="none" xmlns="http://www.w3.org/2000/svg">
<ellipse cx="27" cy="25.5" rx="27" ry="25.5" fill="white"/>
<path d="M34.0733 19.8122C33.9215 19.7337 33.7736 19.6477 33.6304 19.5544C33.2138 19.279 32.8318 18.9544 32.4927 18.5878C31.6443 17.617 31.3274 16.6322 31.2107 15.9427H31.2154C31.1179 15.3703 31.1582 15 31.1643 15H27.2999V29.9428C27.2999 30.1434 27.2999 30.3417 27.2915 30.5377C27.2915 30.562 27.2891 30.5845 27.2877 30.6108C27.2877 30.6216 27.2877 30.6328 27.2854 30.6441V30.6525C27.2446 31.1886 27.0728 31.7066 26.7849 32.1607C26.497 32.6148 26.1019 32.9913 25.6344 33.2569C25.1472 33.5341 24.5961 33.6795 24.0355 33.6788C22.2351 33.6788 20.7758 32.2106 20.7758 30.3975C20.7758 28.5844 22.2351 27.1163 24.0355 27.1163C24.3763 27.1159 24.7151 27.1696 25.0391 27.2752L25.0438 23.3405C24.0601 23.2134 23.0607 23.2916 22.1087 23.5701C21.1567 23.8486 20.2727 24.3214 19.5126 24.9586C18.8465 25.5373 18.2865 26.2278 17.8579 26.9991C17.6947 27.2803 17.0793 28.4105 17.0047 30.2447C16.9579 31.2858 17.2705 32.3644 17.4196 32.8102V32.8195C17.5133 33.082 17.8766 33.9778 18.4686 34.733C18.946 35.3387 19.5101 35.8708 20.1426 36.3122V36.3028L20.1519 36.3122C22.0227 37.5834 24.0969 37.5 24.0969 37.5C24.456 37.4855 25.6588 37.5 27.0247 36.8527C28.5397 36.135 29.4022 35.0658 29.4022 35.0658C29.9532 34.4269 30.3914 33.6988 30.6979 32.9128C31.0476 31.9936 31.1643 30.8911 31.1643 30.4505V22.523C31.2111 22.5511 31.8355 22.9641 31.8355 22.9641C31.8355 22.9641 32.7351 23.5406 34.1385 23.9161C35.1454 24.1833 36.5019 24.2395 36.5019 24.2395V20.4033C36.0266 20.4548 35.0615 20.3048 34.0733 19.8122Z" fill="black"/>
</svg>
