<svg width="49" height="49" viewBox="0 0 49 49" fill="none" xmlns="http://www.w3.org/2000/svg">
<circle cx="24.5" cy="24.5" r="24.5" fill="#1C5E20"/>
<path d="M24 12C30.6276 12 36 17.3724 36 24C36 30.6276 30.6276 36 24 36C17.3724 36 12 30.6276 12 24C12 17.3724 17.3724 12 24 12ZM24 14.4C21.4539 14.4 19.0121 15.4114 17.2118 17.2118C15.4114 19.0121 14.4 21.4539 14.4 24C14.4 26.5461 15.4114 28.9879 17.2118 30.7882C19.0121 32.5886 21.4539 33.6 24 33.6C26.5461 33.6 28.9879 32.5886 30.7882 30.7882C32.5886 28.9879 33.6 26.5461 33.6 24C33.6 21.4539 32.5886 19.0121 30.7882 17.2118C28.9879 15.4114 26.5461 14.4 24 14.4ZM24 16.8C24.2939 16.8 24.5776 16.9079 24.7972 17.1033C25.0169 17.2986 25.1572 17.5677 25.1916 17.8596L25.2 18V23.5032L28.4484 26.7516C28.6636 26.9676 28.7886 27.2573 28.7979 27.5621C28.8072 27.8668 28.7001 28.1637 28.4985 28.3923C28.2969 28.621 28.0157 28.7644 27.7122 28.7933C27.4087 28.8222 27.1056 28.7345 26.8644 28.548L26.7516 28.4484L23.1516 24.8484C22.9651 24.6617 22.8453 24.4188 22.8108 24.1572L22.8 24V18C22.8 17.6817 22.9264 17.3765 23.1515 17.1515C23.3765 16.9264 23.6817 16.8 24 16.8Z" fill="white"/>
</svg>
